<svg width="25" height="24" viewBox="0 0 25 24" fill="none" xmlns="http://www.w3.org/2000/svg">
<path d="M12.5 22.75C6.57 22.75 1.75 17.93 1.75 12C1.75 6.07 6.57 1.25 12.5 1.25C18.43 1.25 23.25 6.07 23.25 12C23.25 17.93 18.43 22.75 12.5 22.75ZM12.5 2.75C7.4 2.75 3.25 6.9 3.25 12C3.25 17.1 7.4 21.25 12.5 21.25C17.6 21.25 21.75 17.1 21.75 12C21.75 6.9 17.6 2.75 12.5 2.75Z" fill="#E6E6E6"/>
<path d="M11.0799 15.58C10.8799 15.58 10.6899 15.5 10.5499 15.36L7.71994 12.53C7.42994 12.24 7.42994 11.76 7.71994 11.47C8.00994 11.18 8.48994 11.18 8.77994 11.47L11.0799 13.77L16.2199 8.62998C16.5099 8.33998 16.9899 8.33998 17.2799 8.62998C17.5699 8.91998 17.5699 9.39998 17.2799 9.68998L11.6099 15.36C11.4699 15.5 11.2799 15.58 11.0799 15.58Z" fill="#E6E6E6"/>
</svg>
