<svg width="40" height="40" viewBox="0 0 40 40" fill="none" xmlns="http://www.w3.org/2000/svg">
<path fill-rule="evenodd" clip-rule="evenodd" d="M23.57 23.1629C22.673 23.1629 21.9193 22.442 21.9193 21.5532C21.9193 20.6644 22.673 19.9197 23.57 19.9197C24.467 19.9197 25.1945 20.6644 25.1945 21.5532C25.1945 22.442 24.467 23.1629 23.57 23.1629ZM23.951 26.2872C23.1155 27.1143 21.827 27.5163 20.012 27.5163C20.0082 27.5163 20.0038 27.5156 19.9993 27.5156C19.9955 27.5156 19.991 27.5163 19.9865 27.5163C18.1715 27.5163 16.8837 27.1143 16.049 26.2872C15.7925 26.033 15.7925 25.622 16.049 25.3686C16.3047 25.1152 16.7195 25.1152 16.976 25.3686C17.552 25.9394 18.5367 26.2173 19.9865 26.2173C19.991 26.2173 19.9955 26.218 19.9993 26.218C20.0038 26.218 20.0082 26.2173 20.012 26.2173C21.4617 26.2173 22.4473 25.9394 23.024 25.3686C23.2805 25.1144 23.6953 25.1152 23.951 25.3686C24.2068 25.6228 24.2068 26.0337 23.951 26.2872ZM14.8055 21.5532C14.8055 20.6651 15.5578 19.9197 16.454 19.9197C17.351 19.9197 18.0785 20.6651 18.0785 21.5532C18.0785 22.442 17.351 23.1629 16.454 23.1629C15.5578 23.1629 14.8055 22.442 14.8055 21.5532ZM27.998 11.299C28.6055 11.299 29.0998 11.7888 29.0998 12.39C29.0998 12.992 28.6055 13.4817 27.998 13.4817C27.3905 13.4817 26.8962 12.992 26.8962 12.39C26.8962 11.7888 27.3905 11.299 27.998 11.299ZM32 19.7852C32 18.209 30.7062 16.927 29.1155 16.927C28.427 16.927 27.7948 17.1678 27.2983 17.5684C25.5395 16.4729 23.3075 15.813 20.915 15.6733L22.163 11.7635L25.5928 12.5639C25.6828 13.8013 26.7267 14.7808 27.998 14.7808C29.3277 14.7808 30.41 13.7084 30.41 12.39C30.41 11.0724 29.3277 10 27.998 10C27.068 10 26.2595 10.5247 25.8568 11.2909L21.8713 10.3612C21.5375 10.2831 21.2 10.4734 21.0965 10.7974L19.547 15.6503C16.9693 15.7127 14.546 16.3749 12.6582 17.5342C12.1685 17.1544 11.5527 16.927 10.8845 16.927C9.29375 16.927 8 18.209 8 19.7852C8 20.7595 8.495 21.6208 9.24875 22.1366C9.21725 22.3633 9.20075 22.5914 9.20075 22.8225C9.20075 24.7927 10.3565 26.6253 12.455 27.9823C14.4665 29.2836 17.129 30 19.9513 30C22.7735 30 25.436 29.2836 27.4475 27.9823C29.546 26.6253 30.7017 24.7927 30.7017 22.8225C30.7017 22.6122 30.6875 22.4034 30.6612 22.196C31.4653 21.6885 32 20.7974 32 19.7852Z" fill="#E6E6E6"/>
</svg>
