<svg width="115" height="103" viewBox="0 0 115 103" fill="none" xmlns="http://www.w3.org/2000/svg">
<path d="M87.7778 33.3125H27.2222M87.7778 57.5625H27.2222M3 100L23.1305 89.9229C24.6565 89.159 25.4195 88.7771 26.2194 88.5079C26.9291 88.2691 27.66 88.0963 28.4018 87.992C29.2375 87.875 30.0907 87.875 31.7966 87.875H92.6222C99.4051 87.875 102.797 87.875 105.387 86.5534C107.666 85.3912 109.519 83.5361 110.68 81.2548C112 78.6612 112 75.2656 112 68.475V22.4C112 15.6093 112 12.214 110.68 9.62037C109.519 7.33887 107.666 5.48399 105.387 4.32156C102.797 3 99.4051 3 92.6222 3H22.3778C15.595 3 12.2032 3 9.61266 4.32156C7.33396 5.48399 5.48097 7.33887 4.32012 9.62037C3.00001 12.214 3 15.6094 3 22.4V100Z" stroke="white" stroke-width="6" stroke-linecap="round" stroke-linejoin="round"/>
</svg>
