<svg width="41" height="40" viewBox="0 0 41 40" fill="none" xmlns="http://www.w3.org/2000/svg">
<path d="M21.4825 27C13.966 27 9.67864 21.7447 9.5 13H13.2651C13.3888 19.4184 16.1646 22.1371 18.3632 22.6977V13H21.9085V18.5355C24.0796 18.2973 26.3607 15.7748 27.1302 13H30.6755C30.3855 14.4391 29.8075 15.8017 28.9776 17.0025C28.1477 18.2033 27.0837 19.2166 25.8523 19.979C27.2269 20.6756 28.441 21.6615 29.4145 22.8717C30.388 24.082 31.0988 25.489 31.5 27H27.5974C27.2373 25.6876 26.5054 24.5128 25.4934 23.6228C24.4814 22.7328 23.2343 22.1673 21.9085 21.997V27H21.4825Z" fill="#E6E6E6"/>
</svg>
